<svg xmlns="http://www.w3.org/2000/svg" width="400" height="400" viewBox="0 0 400 400"><path d="M200 299.9c55.173 0 99.9-44.727 99.9-99.9 0-55.173-44.727-99.9-99.9-99.9-55.173 0-99.9 44.727-99.9 99.9 0 55.173 44.727 99.9 99.9 99.9z" fill="#57bb63" fill-rule="evenodd"/><path d="M270.661 129.381c18.079 18.079 29.26 43.054 29.26 70.64 0 55.174-44.726 99.9-99.9 99.9-27.586 0-52.561-11.181-70.64-29.26l141.28-141.28z" fill-opacity=".4" fill-rule="evenodd"/><path d="M200.233 254.024c-9.525 0-18.474-2.434-26.26-6.707l-30.075 9.557 9.805-28.92a53.354 53.354 0 01-7.794-27.834c0-29.77 24.321-53.904 54.325-53.904 30.001 0 54.323 24.133 54.323 53.904 0 29.77-24.32 53.904-54.324 53.904zm0-99.223c-25.186 0-45.672 20.33-45.672 45.32 0 9.915 3.232 19.099 8.699 26.57l-5.705 16.83 17.55-5.578a45.649 45.649 0 0025.128 7.497c25.182 0 45.673-20.33 45.673-45.319 0-24.989-20.49-45.32-45.673-45.32zm27.431 57.734c-.334-.55-1.222-.882-2.551-1.542-1.333-.66-7.881-3.858-9.1-4.297-1.222-.44-2.111-.663-2.998.66-.886 1.323-3.439 4.297-4.217 5.179-.777.883-1.553.993-2.884.332-1.33-.66-5.622-2.056-10.71-6.557-3.957-3.502-6.63-7.825-7.406-9.15-.777-1.321-.083-2.036.584-2.693.598-.593 1.331-1.543 1.998-2.314.666-.772.887-1.322 1.33-2.205.445-.881.223-1.652-.11-2.315-.334-.66-2.998-7.162-4.107-9.808-1.11-2.644-2.217-2.203-2.995-2.203s-1.665-.111-2.553-.111c-.888 0-2.331.33-3.552 1.652-1.22 1.323-4.659 4.52-4.659 11.02 0 6.503 4.77 12.784 5.437 13.665.665.88 9.21 14.656 22.745 19.946 13.541 5.29 13.541 3.525 15.983 3.305 2.438-.22 7.875-3.195 8.988-6.28 1.108-3.087 1.108-5.733.777-6.284z" fill="#fff" fill-rule="evenodd"/></svg>