<svg width="66" height="66" viewBox="0 0 66 66" fill="none" xmlns="http://www.w3.org/2000/svg">
<path d="M60 0H6C2.685 0 0 2.685 0 6V60C0 63.315 2.685 66 6 66H60C63.315 66 66 63.315 66 60V6C66 2.685 63.315 0 60 0ZM52.083 44.901L46.479 44.979C46.479 44.979 45.27 45.216 43.689 44.124C41.592 42.684 39.615 38.937 38.073 39.423C36.51 39.921 36.558 43.293 36.558 43.293C36.558 43.293 36.57 43.887 36.213 44.274C35.826 44.691 35.067 44.649 35.067 44.649H32.556C32.556 44.649 27.018 45.108 22.137 40.02C16.821 34.473 12.123 23.526 12.123 23.526C12.123 23.526 11.847 22.836 12.141 22.482C12.474 22.092 13.371 22.08 13.371 22.08L19.371 22.05C19.371 22.05 19.935 22.149 20.343 22.449C20.676 22.695 20.865 23.157 20.865 23.157C20.865 23.157 21.834 25.614 23.121 27.84C25.629 32.178 26.793 33.129 27.645 32.664C28.887 31.986 28.515 26.532 28.515 26.532C28.515 26.532 28.539 24.552 27.891 23.67C27.387 22.983 26.439 22.779 26.025 22.728C25.686 22.683 26.238 21.897 26.958 21.543C28.038 21.015 29.946 20.985 32.199 21.006C33.954 21.024 34.461 21.132 35.145 21.3C37.215 21.801 36.513 23.733 36.513 28.368C36.513 29.853 36.246 31.941 37.314 32.628C37.776 32.925 38.901 32.673 41.706 27.891C43.041 25.623 44.04 22.959 44.04 22.959C44.04 22.959 44.259 22.485 44.598 22.281C44.946 22.071 45.414 22.137 45.414 22.137L51.729 22.098C51.729 22.098 53.625 21.87 53.934 22.731C54.258 23.631 53.226 25.734 50.646 29.175C46.41 34.827 45.939 34.302 49.458 37.572C52.818 40.695 53.511 42.213 53.628 42.405C55.017 44.718 52.083 44.901 52.083 44.901Z" fill="white"/>
</svg>
