<svg width="66" height="66" viewBox="0 0 66 66" fill="none" xmlns="http://www.w3.org/2000/svg">
<path d="M6 0C2.685 0 0 2.685 0 6V60C0 63.315 2.685 66 6 66H60C63.315 66 66 63.315 66 60V6C66 2.685 63.315 0 60 0H6ZM16.1426 6.66797H19.5879L20.9648 13.125C21.3158 14.715 21.5761 16.0694 21.7441 17.1914H21.8496C21.9666 16.3874 22.2239 15.0414 22.6289 13.1484L24.0586 6.66797H27.5039L23.5078 20.9121V27.7441H20.0859V20.9121L16.1426 6.66797ZM31.4824 12.0469C32.6224 12.0469 33.5317 12.279 34.2188 12.75C34.9058 13.218 35.4066 13.9543 35.7246 14.9473C36.0426 15.9433 36.2051 17.2698 36.2051 18.9258V21.1641C36.2051 22.8081 36.0453 24.1231 35.7363 25.1191C35.4273 26.1151 34.9235 26.8485 34.2305 27.3105C33.5375 27.7725 32.5942 27.9961 31.4062 27.9961C30.1852 27.9961 29.2253 27.764 28.5293 27.293C27.8333 26.825 27.3409 26.0974 27.0469 25.1074C26.7529 24.1174 26.6074 22.8051 26.6074 21.1641V18.9258C26.6074 17.2668 26.7725 15.9377 27.1055 14.9297C27.4415 13.9307 27.9706 13.1914 28.6816 12.7324C29.3926 12.2704 30.3244 12.0469 31.4824 12.0469ZM38.0098 12.3457H41.4727V23.6543C41.4727 24.3413 41.5482 24.831 41.7012 25.125C41.8542 25.419 42.103 25.5645 42.457 25.5645C42.757 25.5645 43.0452 25.4751 43.3242 25.2891C43.6002 25.1061 43.8075 24.8709 43.9395 24.5859V12.3457H47.4082V27.75H44.6895L44.3906 25.8633H44.3145C43.5795 27.2883 42.4769 28.002 41.0039 28.002C39.9839 28.002 39.2223 27.6631 38.7363 26.9941C38.2503 26.3251 38.0098 25.2785 38.0098 23.8535V12.3457ZM31.4062 14.4375C30.9382 14.4375 30.608 14.6892 30.416 15.1992C30.224 15.7122 30.1289 16.521 30.1289 17.625V22.4238C30.1289 23.5638 30.2183 24.3838 30.4043 24.8848C30.5903 25.3858 30.9261 25.6406 31.4121 25.6406C31.8951 25.6376 32.2338 25.3888 32.4258 24.8848C32.6178 24.3838 32.7129 23.5608 32.7129 22.4238V17.625C32.7129 16.518 32.6178 15.7092 32.4258 15.1992C32.2338 14.6862 31.8923 14.4375 31.4062 14.4375ZM14.332 30.668H51.668C54.602 30.668 57 33.066 57 36V54.668C57 57.602 54.602 60 51.668 60H14.332C11.398 60 9 57.602 9 54.668V36C9 33.066 11.398 30.668 14.332 30.668ZM33.1348 36V54.4512H35.5488L35.8477 53.2207H35.9121C36.1401 53.6617 36.4756 54.0087 36.9316 54.2637C37.3846 54.5157 37.8855 54.6445 38.4375 54.6445C39.4275 54.6445 40.1492 54.1913 40.6172 53.2793C41.0852 52.3673 41.3203 50.94 41.3203 49.002V46.9453H41.3145C41.3145 45.4903 41.2278 44.3513 41.0508 43.5293C40.8738 42.7103 40.5883 42.117 40.1953 41.748C39.8023 41.379 39.2535 41.1973 38.5605 41.1973C38.0205 41.1973 37.5197 41.3513 37.0547 41.6543C36.5867 41.9573 36.2257 42.3546 35.9707 42.8496H35.9531V36H33.1348ZM15.6328 36.6621V39.0117H18.5391V54.4512H21.3984V39.0117H24.3047V36.6621H15.6328ZM46.5879 41.2031C45.1329 41.2031 44.1059 41.6508 43.5059 42.5508C42.9059 43.4508 42.6035 44.8751 42.6035 46.8281V49.0957C42.6035 50.9917 42.8946 52.3939 43.4766 53.2969C44.0586 54.1999 45.0687 54.6562 46.5117 54.6562C47.7147 54.6562 48.6408 54.3596 49.3008 53.7656C49.9608 53.1746 50.291 52.2733 50.291 51.0703C50.291 50.8723 50.2796 50.7156 50.2676 50.6016L47.7422 50.4492C47.7302 51.2412 47.6405 51.8094 47.4785 52.1484C47.3165 52.4874 47.0112 52.6582 46.5762 52.6582C46.2522 52.6582 46.0115 52.5631 45.8555 52.3711C45.6995 52.1821 45.6018 51.874 45.5508 51.457C45.4998 51.04 45.4746 50.416 45.4746 49.582V48.9199H50.3672V46.6992C50.3672 45.3282 50.2581 44.2507 50.0391 43.4707C49.8171 42.6937 49.4393 42.1258 48.9023 41.7598C48.3623 41.3908 47.5929 41.2031 46.5879 41.2031ZM23.4316 41.4492V51.1641C23.4316 52.3641 23.6359 53.2514 24.0469 53.8184C24.4579 54.3824 25.0872 54.668 25.9512 54.668C27.1962 54.668 28.1338 54.0634 28.7578 52.8574H28.8164L29.0684 54.4512H31.3594H31.3652V41.4492H28.4414V51.7793C28.3274 52.0193 28.1539 52.2181 27.9199 52.3711C27.6889 52.5271 27.4425 52.6055 27.1875 52.6055C26.8875 52.6055 26.6807 52.4853 26.5547 52.2363C26.4257 51.9903 26.3613 51.5731 26.3613 50.9941V41.4492H23.4316ZM46.5293 43.1836C46.8413 43.1836 47.0707 43.2703 47.2207 43.4473C47.3707 43.6243 47.4744 43.9235 47.5254 44.3555C47.5824 44.7875 47.6074 45.4258 47.6074 46.2598V47.1914H45.4688V46.2598C45.4688 45.4108 45.4939 44.7725 45.5449 44.3555C45.5929 43.9385 45.6879 43.642 45.8379 43.459C45.9879 43.279 46.2173 43.1836 46.5293 43.1836ZM37.2422 43.2773C37.5422 43.2773 37.7716 43.392 37.9336 43.623C38.0926 43.854 38.2104 44.2488 38.2734 44.8008C38.3364 45.3528 38.3672 46.1362 38.3672 47.1562V48.832C38.3672 49.78 38.3339 50.5246 38.2559 51.0586C38.1779 51.5986 38.0434 51.982 37.8574 52.207C37.6714 52.432 37.4311 52.5469 37.1191 52.5469C36.8761 52.5469 36.6552 52.4821 36.4512 52.3711C36.2472 52.2571 36.0791 52.0893 35.9531 51.8613V44.4844C36.0521 44.1334 36.2229 43.8393 36.4629 43.6113C36.7029 43.3833 36.9602 43.2773 37.2422 43.2773Z" fill="white"/>
</svg>
